<svg width="298" height="13" viewBox="0 0 298 13" fill="none" xmlns="http://www.w3.org/2000/svg">
<path d="M1.63224 10.1293V9.05824H2.22314C2.45089 9.05824 2.64171 9.01361 2.79559 8.92436C2.95255 8.83511 3.08181 8.7197 3.18337 8.57812C3.28801 8.43655 3.37419 8.28883 3.44189 8.13494L3.58962 7.78409L0.321156 0.545454H1.55837L4.16207 6.41761L6.54417 0.545454H7.76292L4.49445 8.46733C4.36519 8.76278 4.21746 9.0367 4.05127 9.28906C3.88815 9.54143 3.66502 9.74455 3.38188 9.89844C3.10181 10.0523 2.72172 10.1293 2.24161 10.1293H1.63224ZM13.6374 2.90909V10H12.5479V2.90909H13.6374ZM13.2127 6.28835V7.30398C12.9665 7.39631 12.7218 7.47786 12.4786 7.54865C12.2355 7.61636 11.9801 7.67022 11.7123 7.71023C11.4446 7.74716 11.1506 7.76562 10.8306 7.76562C10.0273 7.76562 9.38253 7.54865 8.89626 7.1147C8.41307 6.68075 8.17148 6.02983 8.17148 5.16193V2.89062H9.26096V5.16193C9.26096 5.52509 9.33021 5.82363 9.46871 6.05753C9.6072 6.29143 9.79494 6.46532 10.0319 6.57919C10.2689 6.69306 10.5351 6.75 10.8306 6.75C11.2922 6.75 11.7092 6.70845 12.0816 6.62536C12.4571 6.53918 12.8341 6.42685 13.2127 6.28835ZM18.6093 10.1477C17.9261 10.1477 17.3367 9.99692 16.8412 9.69531C16.3488 9.39062 15.9687 8.96591 15.7009 8.42116C15.4363 7.87334 15.3039 7.23627 15.3039 6.50994C15.3039 5.78362 15.4363 5.14347 15.7009 4.58949C15.9687 4.03243 16.3411 3.59848 16.8181 3.28764C17.2983 2.97372 17.8584 2.81676 18.4985 2.81676C18.8679 2.81676 19.2326 2.87831 19.5926 3.00142C19.9527 3.12453 20.2805 3.32457 20.576 3.60156C20.8714 3.87547 21.1068 4.23864 21.2823 4.69105C21.4577 5.14347 21.5454 5.70052 21.5454 6.36222V6.82386H16.0795V5.8821H20.4375C20.4375 5.48201 20.3574 5.125 20.1974 4.81108C20.0404 4.49716 19.8158 4.24941 19.5234 4.06783C19.2341 3.88625 18.8925 3.79545 18.4985 3.79545C18.0646 3.79545 17.6891 3.90317 17.3721 4.11861C17.0582 4.33097 16.8166 4.60795 16.6473 4.94957C16.4781 5.29119 16.3934 5.65743 16.3934 6.0483V6.67614C16.3934 7.21165 16.4858 7.6656 16.6704 8.038C16.8581 8.40732 17.1182 8.68892 17.4506 8.88281C17.783 9.07363 18.1692 9.16903 18.6093 9.16903C18.8956 9.16903 19.1541 9.12902 19.3849 9.04901C19.6188 8.96591 19.8204 8.8428 19.9897 8.67969C20.1589 8.51349 20.2897 8.30729 20.3821 8.06108L21.4346 8.35653C21.3238 8.71354 21.1376 9.02746 20.876 9.2983C20.6144 9.56605 20.2913 9.77533 19.9066 9.92614C19.5219 10.0739 19.0894 10.1477 18.6093 10.1477ZM28.4655 0.25L29.0195 0.914772C28.8041 1.12405 28.5548 1.27024 28.2716 1.35334C27.9885 1.43643 27.6684 1.48722 27.3114 1.50568C26.9544 1.52415 26.5574 1.54261 26.1203 1.56108C25.6279 1.57955 25.2201 1.69957 24.897 1.92116C24.5738 2.14276 24.3245 2.46283 24.1491 2.88139C23.9737 3.29995 23.8613 3.81392 23.8121 4.4233H23.9044C24.1445 3.98011 24.4769 3.65388 24.9016 3.4446C25.3263 3.23532 25.7818 3.13068 26.2681 3.13068C26.822 3.13068 27.3206 3.25994 27.7638 3.51847C28.207 3.77699 28.5578 4.16016 28.8164 4.66797C29.0749 5.17578 29.2041 5.80208 29.2041 6.54688C29.2041 7.28859 29.0718 7.92874 28.8071 8.46733C28.5455 9.00592 28.1777 9.4214 27.7038 9.71378C27.2329 10.0031 26.6805 10.1477 26.0465 10.1477C25.4125 10.1477 24.857 9.99846 24.3799 9.69993C23.9029 9.39832 23.532 8.95206 23.2674 8.36115C23.0027 7.76716 22.8703 7.03314 22.8703 6.15909V5.40199C22.8703 3.82315 23.1381 2.62595 23.6736 1.81037C24.2122 0.994791 25.0216 0.573153 26.1019 0.545454C26.4835 0.533144 26.8236 0.530066 27.1221 0.536221C27.4206 0.542377 27.6807 0.528527 27.9023 0.494673C28.1239 0.460819 28.3116 0.379261 28.4655 0.25ZM26.0465 9.16903C26.4743 9.16903 26.842 9.06132 27.1498 8.84588C27.4607 8.63045 27.6992 8.3273 27.8654 7.93643C28.0316 7.5425 28.1147 7.07931 28.1147 6.54688C28.1147 6.02983 28.03 5.58973 27.8608 5.22656C27.6946 4.8634 27.456 4.58641 27.1452 4.3956C26.8344 4.20478 26.462 4.10938 26.028 4.10938C25.711 4.10938 25.4263 4.16323 25.174 4.27095C24.9216 4.37867 24.7062 4.53717 24.5277 4.74645C24.3492 4.95573 24.2107 5.21117 24.1122 5.51278C24.0168 5.81439 23.966 6.15909 23.9598 6.54688C23.9598 7.34091 24.146 7.97644 24.5184 8.45348C24.8908 8.93052 25.4002 9.16903 26.0465 9.16903ZM35.6164 5.95597V6.97159H31.7017V5.95597H35.6164ZM31.9602 2.90909V10H30.8707V2.90909H31.9602ZM36.4474 2.90909V10H35.3579V2.90909H36.4474ZM39.3789 5.47585H41.4101C42.2411 5.47585 42.8766 5.68667 43.3167 6.10831C43.7568 6.52995 43.9769 7.06392 43.9769 7.71023C43.9769 8.13494 43.8784 8.52119 43.6814 8.86896C43.4844 9.21366 43.1951 9.48911 42.8135 9.69531C42.4319 9.89844 41.9641 10 41.4101 10H38.4371V2.90909H39.5266V8.98438H41.4101C41.841 8.98438 42.1949 8.8705 42.4719 8.64276C42.7489 8.41501 42.8874 8.12263 42.8874 7.76562C42.8874 7.39015 42.7489 7.08393 42.4719 6.84695C42.1949 6.60997 41.841 6.49148 41.4101 6.49148H39.3789V5.47585ZM45.1033 10V2.90909H46.1928V10H45.1033ZM49.2766 8.39347L52.6928 2.90909H53.9485V10H52.859V4.51562L49.4612 10H48.1871V2.90909H49.2766V8.39347ZM51.9726 0.545454H52.9882C52.9882 1.04403 52.8159 1.45182 52.4712 1.76882C52.1265 2.08582 51.6587 2.24432 51.0678 2.24432C50.4861 2.24432 50.0229 2.08582 49.6782 1.76882C49.3366 1.45182 49.1658 1.04403 49.1658 0.545454H50.1814C50.1814 0.785511 50.2476 0.99633 50.3799 1.17791C50.5153 1.35949 50.7446 1.45028 51.0678 1.45028C51.3909 1.45028 51.6218 1.35949 51.7603 1.17791C51.9018 0.99633 51.9726 0.785511 51.9726 0.545454ZM59.6002 10V2.90909H65.1769V10H64.0874V3.92472H60.6897V10H59.6002ZM67.1666 12.6591V2.90909H68.2191V4.03551H68.3484C68.4284 3.91241 68.5392 3.75544 68.6808 3.56463C68.8254 3.37074 69.0316 3.19839 69.2994 3.04759C69.5702 2.8937 69.9365 2.81676 70.3981 2.81676C70.9952 2.81676 71.5215 2.96603 71.977 3.26456C72.4325 3.56309 72.7879 3.98627 73.0434 4.53409C73.2988 5.08191 73.4265 5.72822 73.4265 6.47301C73.4265 7.22396 73.2988 7.87488 73.0434 8.42578C72.7879 8.9736 72.434 9.39832 71.9816 9.69993C71.5292 9.99846 71.0075 10.1477 70.4166 10.1477C69.9611 10.1477 69.5964 10.0723 69.3225 9.92152C69.0486 9.76764 68.8378 9.59375 68.69 9.39986C68.5423 9.20289 68.4284 9.03977 68.3484 8.91051H68.2561V12.6591H67.1666ZM68.2376 6.45455C68.2376 6.99006 68.3161 7.46248 68.4731 7.8718C68.63 8.27805 68.8593 8.59659 69.1609 8.82741C69.4625 9.05516 69.8318 9.16903 70.2689 9.16903C70.7244 9.16903 71.1044 9.04901 71.4091 8.80895C71.7169 8.56581 71.9477 8.23958 72.1016 7.83026C72.2586 7.41785 72.337 6.95928 72.337 6.45455C72.337 5.95597 72.2601 5.50663 72.1062 5.10653C71.9554 4.70336 71.7261 4.38482 71.4184 4.15092C71.1137 3.91394 70.7305 3.79545 70.2689 3.79545C69.8257 3.79545 69.4533 3.90779 69.1517 4.13246C68.8501 4.35405 68.6223 4.66489 68.4684 5.06499C68.3146 5.462 68.2376 5.92519 68.2376 6.45455ZM77.9691 10.1477C77.329 10.1477 76.7673 9.99538 76.2841 9.6907C75.804 9.38601 75.4285 8.95975 75.1577 8.41193C74.89 7.86411 74.7561 7.22396 74.7561 6.49148C74.7561 5.75284 74.89 5.10807 75.1577 4.55717C75.4285 4.00627 75.804 3.57848 76.2841 3.27379C76.7673 2.96911 77.329 2.81676 77.9691 2.81676C78.6093 2.81676 79.1694 2.96911 79.6495 3.27379C80.1327 3.57848 80.5082 4.00627 80.776 4.55717C81.0468 5.10807 81.1822 5.75284 81.1822 6.49148C81.1822 7.22396 81.0468 7.86411 80.776 8.41193C80.5082 8.95975 80.1327 9.38601 79.6495 9.6907C79.1694 9.99538 78.6093 10.1477 77.9691 10.1477ZM77.9691 9.16903C78.4554 9.16903 78.8555 9.04439 79.1694 8.7951C79.4834 8.54581 79.7157 8.21804 79.8665 7.81179C80.0173 7.40554 80.0927 6.96544 80.0927 6.49148C80.0927 6.01752 80.0173 5.57588 79.8665 5.16655C79.7157 4.75722 79.4834 4.42637 79.1694 4.17401C78.8555 3.92164 78.4554 3.79545 77.9691 3.79545C77.4829 3.79545 77.0828 3.92164 76.7689 4.17401C76.4549 4.42637 76.2226 4.75722 76.0718 5.16655C75.921 5.57588 75.8456 6.01752 75.8456 6.49148C75.8456 6.96544 75.921 7.40554 76.0718 7.81179C76.2226 8.21804 76.4549 8.54581 76.7689 8.7951C77.0828 9.04439 77.4829 9.16903 77.9691 9.16903ZM85.8183 10.1477C85.1351 10.1477 84.5457 9.99692 84.0502 9.69531C83.5578 9.39062 83.1777 8.96591 82.9099 8.42116C82.6453 7.87334 82.5129 7.23627 82.5129 6.50994C82.5129 5.78362 82.6453 5.14347 82.9099 4.58949C83.1777 4.03243 83.5501 3.59848 84.0271 3.28764C84.5072 2.97372 85.0674 2.81676 85.7075 2.81676C86.0768 2.81676 86.4415 2.87831 86.8016 3.00142C87.1617 3.12453 87.4895 3.32457 87.7849 3.60156C88.0804 3.87547 88.3158 4.23864 88.4913 4.69105C88.6667 5.14347 88.7544 5.70052 88.7544 6.36222V6.82386H83.2885V5.8821H87.6464C87.6464 5.48201 87.5664 5.125 87.4064 4.81108C87.2494 4.49716 87.0248 4.24941 86.7324 4.06783C86.4431 3.88625 86.1015 3.79545 85.7075 3.79545C85.2736 3.79545 84.8981 3.90317 84.5811 4.11861C84.2672 4.33097 84.0256 4.60795 83.8563 4.94957C83.687 5.29119 83.6024 5.65743 83.6024 6.0483V6.67614C83.6024 7.21165 83.6947 7.6656 83.8794 8.038C84.0671 8.40732 84.3272 8.68892 84.6596 8.88281C84.992 9.07363 85.3782 9.16903 85.8183 9.16903C86.1045 9.16903 86.3631 9.12902 86.5939 9.04901C86.8278 8.96591 87.0294 8.8428 87.1986 8.67969C87.3679 8.51349 87.4987 8.30729 87.591 8.06108L88.6436 8.35653C88.5328 8.71354 88.3466 9.02746 88.085 9.2983C87.8234 9.56605 87.5003 9.77533 87.1155 9.92614C86.7308 10.0739 86.2984 10.1477 85.8183 10.1477ZM90.4117 10V2.90909H91.5012V5.9929H92.2214L94.7697 2.90909H96.1731L93.3109 6.32528L96.21 10H94.8066L92.4799 7.00852H91.5012V10H90.4117ZM96.9879 3.92472V2.90909H102.749V3.92472H100.423V10H99.3331V3.92472H96.9879ZM114.569 10H113.424V1.56108H111.411C110.9 1.56108 110.489 1.63956 110.178 1.79652C109.867 1.9504 109.641 2.16892 109.5 2.45206C109.358 2.7352 109.287 3.06605 109.287 3.4446C109.287 3.82315 109.357 4.14938 109.495 4.4233C109.637 4.69413 109.861 4.90341 110.169 5.05114C110.48 5.19886 110.888 5.27273 111.392 5.27273H113.941V6.30682H111.356C110.623 6.30682 110.021 6.18525 109.55 5.94212C109.08 5.6959 108.73 5.35736 108.503 4.92649C108.275 4.49562 108.161 4.00166 108.161 3.4446C108.161 2.88755 108.275 2.39051 108.503 1.95348C108.73 1.51645 109.081 1.17329 109.555 0.924005C110.029 0.671638 110.635 0.545454 111.374 0.545454H114.569V10ZM110.118 5.75284H111.411L109.121 10H107.792L110.118 5.75284ZM121.462 5.95597V6.97159H117.547V5.95597H121.462ZM117.806 2.90909V10H116.716V2.90909H117.806ZM122.293 2.90909V10H121.204V2.90909H122.293ZM123.526 12.0312V8.98438H124.117C124.261 8.83357 124.386 8.67045 124.491 8.49503C124.595 8.3196 124.686 8.11186 124.763 7.8718C124.843 7.62867 124.911 7.33321 124.966 6.98544C125.021 6.63459 125.071 6.21141 125.114 5.71591L125.354 2.90909H129.86V8.98438H130.949V12.0312H129.86V10H124.615V12.0312H123.526ZM125.354 8.98438H128.77V3.92472H126.369L126.185 5.71591C126.108 6.45762 126.012 7.10547 125.899 7.65945C125.785 8.21342 125.603 8.65507 125.354 8.98438ZM135.368 10.1477C134.685 10.1477 134.096 9.99692 133.6 9.69531C133.108 9.39062 132.727 8.96591 132.46 8.42116C132.195 7.87334 132.063 7.23627 132.063 6.50994C132.063 5.78362 132.195 5.14347 132.46 4.58949C132.727 4.03243 133.1 3.59848 133.577 3.28764C134.057 2.97372 134.617 2.81676 135.257 2.81676C135.627 2.81676 135.991 2.87831 136.351 3.00142C136.712 3.12453 137.039 3.32457 137.335 3.60156C137.63 3.87547 137.866 4.23864 138.041 4.69105C138.216 5.14347 138.304 5.70052 138.304 6.36222V6.82386H132.838V5.8821H137.196C137.196 5.48201 137.116 5.125 136.956 4.81108C136.799 4.49716 136.575 4.24941 136.282 4.06783C135.993 3.88625 135.651 3.79545 135.257 3.79545C134.823 3.79545 134.448 3.90317 134.131 4.11861C133.817 4.33097 133.575 4.60795 133.406 4.94957C133.237 5.29119 133.152 5.65743 133.152 6.0483V6.67614C133.152 7.21165 133.245 7.6656 133.429 8.038C133.617 8.40732 133.877 8.68892 134.209 8.88281C134.542 9.07363 134.928 9.16903 135.368 9.16903C135.654 9.16903 135.913 9.12902 136.144 9.04901C136.378 8.96591 136.579 8.8428 136.748 8.67969C136.918 8.51349 137.049 8.30729 137.141 8.06108L138.193 8.35653C138.083 8.71354 137.896 9.02746 137.635 9.2983C137.373 9.56605 137.05 9.77533 136.665 9.92614C136.281 10.0739 135.848 10.1477 135.368 10.1477ZM139.962 10V2.90909H141.051V5.9929H141.771L144.319 2.90909H145.723L142.861 6.32528L145.76 10H144.356L142.03 7.00852H141.051V10H139.962ZM149.533 10.1477C148.868 10.1477 148.295 9.99077 147.815 9.67685C147.335 9.36293 146.966 8.93052 146.707 8.37962C146.449 7.82872 146.32 7.19934 146.32 6.49148C146.32 5.77131 146.452 5.13577 146.717 4.58487C146.984 4.03089 147.357 3.59848 147.834 3.28764C148.314 2.97372 148.874 2.81676 149.514 2.81676C150.013 2.81676 150.462 2.90909 150.862 3.09375C151.262 3.27841 151.59 3.53693 151.845 3.86932C152.101 4.2017 152.259 4.58949 152.321 5.03267H151.231C151.148 4.70952 150.964 4.4233 150.678 4.17401C150.394 3.92164 150.013 3.79545 149.533 3.79545C149.108 3.79545 148.736 3.90625 148.415 4.12784C148.098 4.34635 147.851 4.65566 147.672 5.05575C147.497 5.45277 147.409 5.91903 147.409 6.45455C147.409 7.00237 147.495 7.4794 147.668 7.88565C147.843 8.2919 148.089 8.60736 148.406 8.83203C148.726 9.0567 149.102 9.16903 149.533 9.16903C149.816 9.16903 150.073 9.11979 150.304 9.02131C150.534 8.92282 150.73 8.78125 150.89 8.59659C151.05 8.41193 151.164 8.19034 151.231 7.93182H152.321C152.259 8.35038 152.107 8.72739 151.864 9.06286C151.624 9.39524 151.305 9.65992 150.908 9.85689C150.514 10.0508 150.056 10.1477 149.533 10.1477ZM154.708 10.0739C154.48 10.0739 154.285 9.99231 154.121 9.82919C153.958 9.66607 153.877 9.47064 153.877 9.2429C153.877 9.01515 153.958 8.81972 154.121 8.65661C154.285 8.49349 154.48 8.41193 154.708 8.41193C154.935 8.41193 155.131 8.49349 155.294 8.65661C155.457 8.81972 155.539 9.01515 155.539 9.2429C155.539 9.3937 155.5 9.5322 155.423 9.65838C155.349 9.78456 155.249 9.88613 155.123 9.96307C155 10.0369 154.862 10.0739 154.708 10.0739ZM164.714 0.545454V10H163.569V1.56108H158.805V10H157.66V0.545454H164.714ZM166.876 12.6591V2.90909H167.928V4.03551H168.057C168.137 3.91241 168.248 3.75544 168.39 3.56463C168.534 3.37074 168.741 3.19839 169.008 3.04759C169.279 2.8937 169.645 2.81676 170.107 2.81676C170.704 2.81676 171.23 2.96603 171.686 3.26456C172.141 3.56309 172.497 3.98627 172.752 4.53409C173.008 5.08191 173.136 5.72822 173.136 6.47301C173.136 7.22396 173.008 7.87488 172.752 8.42578C172.497 8.9736 172.143 9.39832 171.691 9.69993C171.238 9.99846 170.716 10.1477 170.126 10.1477C169.67 10.1477 169.305 10.0723 169.031 9.92152C168.758 9.76764 168.547 9.59375 168.399 9.39986C168.251 9.20289 168.137 9.03977 168.057 8.91051H167.965V12.6591H166.876ZM167.947 6.45455C167.947 6.99006 168.025 7.46248 168.182 7.8718C168.339 8.27805 168.568 8.59659 168.87 8.82741C169.172 9.05516 169.541 9.16903 169.978 9.16903C170.433 9.16903 170.813 9.04901 171.118 8.80895C171.426 8.56581 171.657 8.23958 171.811 7.83026C171.968 7.41785 172.046 6.95928 172.046 6.45455C172.046 5.95597 171.969 5.50663 171.815 5.10653C171.664 4.70336 171.435 4.38482 171.127 4.15092C170.823 3.91394 170.439 3.79545 169.978 3.79545C169.535 3.79545 169.162 3.90779 168.861 4.13246C168.559 4.35405 168.331 4.66489 168.177 5.06499C168.024 5.462 167.947 5.92519 167.947 6.45455ZM176.884 10.1662C176.435 10.1662 176.027 10.0816 175.661 9.91229C175.294 9.73994 175.004 9.49219 174.788 9.16903C174.573 8.8428 174.465 8.44886 174.465 7.98722C174.465 7.58097 174.545 7.25166 174.705 6.99929C174.865 6.74384 175.079 6.5438 175.347 6.39915C175.615 6.2545 175.91 6.14678 176.233 6.07599C176.559 6.00213 176.887 5.94366 177.216 5.90057C177.647 5.84517 177.997 5.80362 178.264 5.77592C178.535 5.74515 178.732 5.69437 178.855 5.62358C178.982 5.55279 179.045 5.42969 179.045 5.25426V5.21733C179.045 4.76184 178.92 4.40791 178.671 4.15554C178.424 3.90317 178.051 3.77699 177.549 3.77699C177.029 3.77699 176.621 3.89086 176.326 4.11861C176.03 4.34635 175.822 4.58949 175.702 4.84801L174.668 4.47869C174.853 4.04782 175.099 3.71236 175.407 3.4723C175.718 3.22917 176.056 3.0599 176.422 2.96449C176.792 2.866 177.155 2.81676 177.512 2.81676C177.74 2.81676 178.001 2.84446 178.297 2.89986C178.595 2.95218 178.883 3.06143 179.16 3.22763C179.44 3.39382 179.672 3.64465 179.857 3.98011C180.042 4.31558 180.134 4.76491 180.134 5.32812V10H179.045V9.03977H178.989C178.915 9.19366 178.792 9.35831 178.62 9.53374C178.448 9.70916 178.218 9.85843 177.932 9.98153C177.646 10.1046 177.297 10.1662 176.884 10.1662ZM177.05 9.1875C177.481 9.1875 177.844 9.10286 178.14 8.93359C178.438 8.76432 178.663 8.54581 178.814 8.27805C178.968 8.0103 179.045 7.72869 179.045 7.43324V6.43608C178.998 6.49148 178.897 6.54226 178.74 6.58842C178.586 6.63151 178.408 6.66998 178.204 6.70383C178.004 6.73461 177.809 6.76231 177.618 6.78693C177.43 6.80848 177.278 6.82694 177.161 6.84233C176.878 6.87926 176.613 6.93928 176.367 7.02237C176.124 7.10239 175.927 7.22396 175.776 7.38707C175.628 7.54711 175.555 7.76562 175.555 8.04261C175.555 8.42116 175.695 8.70739 175.975 8.90128C176.258 9.09209 176.616 9.1875 177.05 9.1875ZM182.123 10V2.90909H183.212V5.9929H183.932L186.481 2.90909H187.884L185.022 6.32528L187.921 10H186.518L184.191 7.00852H183.212V10H182.123ZM188.699 3.92472V2.90909H194.46V3.92472H192.133V10H191.044V3.92472H188.699ZM197.139 8.39347L200.555 2.90909H201.811V10H200.721V4.51562L197.324 10H196.049V2.90909H197.139V8.39347ZM203.806 10V2.90909H204.896V5.9929H205.616L208.164 2.90909H209.568L206.705 6.32528L209.605 10H208.201L205.874 7.00852H204.896V10H203.806ZM211.49 12.6591C211.306 12.6591 211.141 12.6437 210.996 12.6129C210.852 12.5852 210.752 12.5575 210.696 12.5298L210.973 11.5696C211.238 11.6373 211.472 11.6619 211.675 11.6435C211.878 11.625 212.058 11.5342 212.215 11.3711C212.375 11.2111 212.521 10.951 212.654 10.5909L212.857 10.0369L210.235 2.90909H211.417L213.374 8.55966H213.448L215.405 2.90909H216.587L213.577 11.0341C213.442 11.4003 213.274 11.7035 213.074 11.9435C212.874 12.1867 212.641 12.3667 212.377 12.4837C212.115 12.6006 211.82 12.6591 211.49 12.6591ZM221.903 8.52273L224.377 2.90909H225.411L222.346 10H221.46L218.45 2.90909H219.465L221.903 8.52273ZM219.114 2.90909V10H218.025V2.90909H219.114ZM224.691 10V2.90909H225.781V10H224.691ZM232.244 2.90909L233.943 5.80824L235.641 2.90909H236.897L234.607 6.45455L236.897 10H235.641L233.943 7.24858L232.244 10H230.988L233.241 6.45455L230.988 2.90909H232.244ZM242.256 10V0.545454H245.561C246.22 0.545454 246.763 0.659327 247.191 0.887074C247.619 1.11174 247.937 1.41489 248.146 1.79652C248.356 2.17507 248.46 2.59517 248.46 3.05682C248.46 3.46307 248.388 3.79853 248.243 4.06321C248.102 4.32789 247.914 4.53717 247.68 4.69105C247.449 4.84493 247.198 4.95881 246.928 5.03267V5.125C247.217 5.14347 247.508 5.24503 247.8 5.42969C248.092 5.61435 248.337 5.87902 248.534 6.22372C248.731 6.56842 248.83 6.99006 248.83 7.48864C248.83 7.96259 248.722 8.38885 248.506 8.7674C248.291 9.14595 247.951 9.44602 247.486 9.66761C247.021 9.8892 246.417 10 245.672 10H242.256ZM243.401 8.98438H245.672C246.42 8.98438 246.951 8.83973 247.265 8.55043C247.582 8.25805 247.74 7.90412 247.74 7.48864C247.74 7.16856 247.659 6.87311 247.495 6.60227C247.332 6.32836 247.1 6.10985 246.798 5.94673C246.497 5.78054 246.14 5.69744 245.727 5.69744H243.401V8.98438ZM243.401 4.70028H245.524C245.869 4.70028 246.18 4.63258 246.457 4.49716C246.737 4.36174 246.958 4.17093 247.121 3.92472C247.288 3.6785 247.371 3.3892 247.371 3.05682C247.371 2.64134 247.226 2.28894 246.937 1.99964C246.648 1.70727 246.189 1.56108 245.561 1.56108H243.401V4.70028ZM253.536 10.1477C252.853 10.1477 252.263 9.99692 251.768 9.69531C251.276 9.39062 250.895 8.96591 250.628 8.42116C250.363 7.87334 250.231 7.23627 250.231 6.50994C250.231 5.78362 250.363 5.14347 250.628 4.58949C250.895 4.03243 251.268 3.59848 251.745 3.28764C252.225 2.97372 252.785 2.81676 253.425 2.81676C253.795 2.81676 254.159 2.87831 254.519 3.00142C254.879 3.12453 255.207 3.32457 255.503 3.60156C255.798 3.87547 256.034 4.23864 256.209 4.69105C256.384 5.14347 256.472 5.70052 256.472 6.36222V6.82386H251.006V5.8821H255.364C255.364 5.48201 255.284 5.125 255.124 4.81108C254.967 4.49716 254.743 4.24941 254.45 4.06783C254.161 3.88625 253.819 3.79545 253.425 3.79545C252.991 3.79545 252.616 3.90317 252.299 4.11861C251.985 4.33097 251.743 4.60795 251.574 4.94957C251.405 5.29119 251.32 5.65743 251.32 6.0483V6.67614C251.32 7.21165 251.413 7.6656 251.597 8.038C251.785 8.40732 252.045 8.68892 252.377 8.88281C252.71 9.07363 253.096 9.16903 253.536 9.16903C253.822 9.16903 254.081 9.12902 254.312 9.04901C254.546 8.96591 254.747 8.8428 254.916 8.67969C255.086 8.51349 255.216 8.30729 255.309 8.06108L256.361 8.35653C256.251 8.71354 256.064 9.02746 255.803 9.2983C255.541 9.56605 255.218 9.77533 254.833 9.92614C254.449 10.0739 254.016 10.1477 253.536 10.1477ZM260.216 10.1662C259.767 10.1662 259.359 10.0816 258.993 9.91229C258.627 9.73994 258.336 9.49219 258.12 9.16903C257.905 8.8428 257.797 8.44886 257.797 7.98722C257.797 7.58097 257.877 7.25166 258.037 6.99929C258.197 6.74384 258.411 6.5438 258.679 6.39915C258.947 6.2545 259.242 6.14678 259.565 6.07599C259.891 6.00213 260.219 5.94366 260.549 5.90057C260.979 5.84517 261.329 5.80362 261.596 5.77592C261.867 5.74515 262.064 5.69437 262.187 5.62358C262.314 5.55279 262.377 5.42969 262.377 5.25426V5.21733C262.377 4.76184 262.252 4.40791 262.003 4.15554C261.756 3.90317 261.383 3.77699 260.881 3.77699C260.361 3.77699 259.953 3.89086 259.658 4.11861C259.362 4.34635 259.154 4.58949 259.034 4.84801L258 4.47869C258.185 4.04782 258.431 3.71236 258.739 3.4723C259.05 3.22917 259.388 3.0599 259.754 2.96449C260.124 2.866 260.487 2.81676 260.844 2.81676C261.072 2.81676 261.333 2.84446 261.629 2.89986C261.927 2.95218 262.215 3.06143 262.492 3.22763C262.772 3.39382 263.004 3.64465 263.189 3.98011C263.374 4.31558 263.466 4.76491 263.466 5.32812V10H262.377V9.03977H262.321C262.247 9.19366 262.124 9.35831 261.952 9.53374C261.78 9.70916 261.55 9.85843 261.264 9.98153C260.978 10.1046 260.629 10.1662 260.216 10.1662ZM260.382 9.1875C260.813 9.1875 261.176 9.10286 261.472 8.93359C261.77 8.76432 261.995 8.54581 262.146 8.27805C262.3 8.0103 262.377 7.72869 262.377 7.43324V6.43608C262.33 6.49148 262.229 6.54226 262.072 6.58842C261.918 6.63151 261.74 6.66998 261.536 6.70383C261.336 6.73461 261.141 6.76231 260.95 6.78693C260.762 6.80848 260.61 6.82694 260.493 6.84233C260.21 6.87926 259.945 6.93928 259.699 7.02237C259.456 7.10239 259.259 7.22396 259.108 7.38707C258.96 7.54711 258.887 7.76562 258.887 8.04261C258.887 8.42116 259.027 8.70739 259.307 8.90128C259.59 9.09209 259.948 9.1875 260.382 9.1875ZM268.538 2.90909V3.83239H264.864V2.90909H268.538ZM265.935 1.21023H267.024V7.96875C267.024 8.27652 267.069 8.50734 267.158 8.66122C267.25 8.81203 267.367 8.91359 267.509 8.96591C267.654 9.01515 267.806 9.03977 267.966 9.03977C268.086 9.03977 268.185 9.03362 268.261 9.02131C268.338 9.00592 268.4 8.99361 268.446 8.98438L268.668 9.96307C268.594 9.99077 268.491 10.0185 268.358 10.0462C268.226 10.0769 268.058 10.0923 267.855 10.0923C267.547 10.0923 267.246 10.0262 266.95 9.89382C266.658 9.76148 266.415 9.5599 266.221 9.28906C266.03 9.01823 265.935 8.67661 265.935 8.2642V1.21023ZM270.477 10V0.545454H276.146V1.56108H271.622V4.75568H275.722V5.77131H271.622V10H270.477ZM277.96 10V2.90909H279.049V10H277.96ZM278.514 1.72727C278.301 1.72727 278.118 1.65495 277.964 1.5103C277.813 1.36565 277.738 1.19176 277.738 0.988636C277.738 0.785511 277.813 0.611624 277.964 0.466974C278.118 0.322325 278.301 0.25 278.514 0.25C278.726 0.25 278.907 0.322325 279.058 0.466974C279.212 0.611624 279.289 0.785511 279.289 0.988636C279.289 1.19176 279.212 1.36565 279.058 1.5103C278.907 1.65495 278.726 1.72727 278.514 1.72727ZM282.134 0.545454V10H281.045V0.545454H282.134ZM284.129 10V2.90909H285.182V4.01705H285.274C285.422 3.63849 285.661 3.34458 285.99 3.1353C286.319 2.92294 286.715 2.81676 287.176 2.81676C287.644 2.81676 288.033 2.92294 288.344 3.1353C288.658 3.34458 288.903 3.63849 289.078 4.01705H289.152C289.334 3.6508 289.606 3.35997 289.969 3.14453C290.332 2.92602 290.768 2.81676 291.276 2.81676C291.91 2.81676 292.428 3.01527 292.832 3.41229C293.235 3.80623 293.436 4.42022 293.436 5.25426V10H292.347V5.25426C292.347 4.73106 292.204 4.35713 291.917 4.13246C291.631 3.90779 291.294 3.79545 290.906 3.79545C290.408 3.79545 290.022 3.94626 289.748 4.24787C289.474 4.5464 289.337 4.92495 289.337 5.38352V10H288.229V5.14347C288.229 4.74029 288.098 4.4156 287.837 4.16939C287.575 3.9201 287.238 3.79545 286.826 3.79545C286.542 3.79545 286.278 3.87086 286.031 4.02166C285.788 4.17247 285.591 4.38175 285.441 4.6495C285.293 4.91418 285.219 5.22041 285.219 5.56818V10H284.129ZM296.222 10.0739C295.995 10.0739 295.799 9.99231 295.636 9.82919C295.473 9.66607 295.391 9.47064 295.391 9.2429C295.391 9.01515 295.473 8.81972 295.636 8.65661C295.799 8.49349 295.995 8.41193 296.222 8.41193C296.45 8.41193 296.646 8.49349 296.809 8.65661C296.972 8.81972 297.053 9.01515 297.053 9.2429C297.053 9.3937 297.015 9.5322 296.938 9.65838C296.864 9.78456 296.764 9.88613 296.638 9.96307C296.515 10.0369 296.376 10.0739 296.222 10.0739Z" fill="#A0A0A0"/>
</svg>
