<?xml version="1.0" standalone="no"?>
<!DOCTYPE svg PUBLIC "-//W3C//DTD SVG 20010904//EN"
 "http://www.w3.org/TR/2001/REC-SVG-20010904/DTD/svg10.dtd">
<svg version="1.0" xmlns="http://www.w3.org/2000/svg"
 width="1280.000000pt" height="1096.000000pt" viewBox="0 0 1280.000000 1096.000000"
 preserveAspectRatio="xMidYMid meet">
<metadata>
Created by potrace 1.15, written by Peter Selinger 2001-2017
</metadata>
<g transform="translate(0.000000,1096.000000) scale(0.100000,-0.100000)"
fill="#000000" stroke="none">
<path d="M2418 10319 c-953 -77 -1714 -849 -1777 -1803 -67 -1013 655 -1903
1664 -2052 137 -20 485 -15 611 10 346 67 660 218 935 449 l71 60 59 -59 59
-58 0 -283 0 -283 118 -2 c107 -2 110 -2 30 -5 -69 -3 -86 -7 -82 -18 4 -8 -3
-15 -18 -18 -13 -2 15 -6 62 -8 47 -2 -567 -6 -1365 -9 -1357 -5 -1454 -7
-1510 -24 -98 -29 -175 -76 -253 -152 -57 -57 -81 -90 -111 -156 -22 -45 -44
-110 -50 -142 -8 -42 -11 -606 -11 -1850 0 -1968 -3 -1861 62 -1994 42 -87
159 -207 243 -250 133 -66 124 -65 645 -72 261 -3 435 -7 385 -8 -85 -3 -88
-4 -60 -17 18 -8 24 -14 15 -16 -8 -1 19 -5 60 -9 l75 -6 -103 -2 -102 -2 2
-452 3 -453 2548 -3 2547 -2 2 370 c1 203 3 407 3 453 l0 82 -100 6 c-86 4
-91 5 -32 7 47 1 66 6 65 14 -2 7 8 15 22 18 14 3 -18 7 -70 11 -52 3 89 6
313 7 431 2 499 8 604 53 116 50 224 153 284 271 52 103 59 154 60 483 2 272
13 604 17 496 l2 -44 24 22 c14 13 29 20 35 17 6 -4 11 18 14 61 2 53 4 42 7
-47 2 -63 4 -124 4 -135 1 -20 9 -20 994 -23 l992 -2 2 172 c2 161 2 166 8 68
3 -58 7 -100 8 -93 2 15 34 5 45 -14 16 -26 26 -12 30 45 2 31 4 -97 5 -286
l2 -342 398 2 397 3 6 80 c4 55 6 65 7 33 2 -35 6 -48 17 -48 9 0 16 -11 17
-27 1 -16 5 31 8 102 4 82 7 -16 8 -268 l2 -397 398 2 397 3 0 2135 0 2135
-395 0 -395 0 -5 -390 c-3 -214 -7 -336 -9 -270 -2 73 -6 110 -10 95 -4 -14
-13 -24 -19 -22 -8 1 -13 -15 -14 -45 -1 -33 -3 -23 -7 32 l-6 80 -395 0 -395
0 -5 -340 c-3 -187 -6 -316 -8 -287 -2 56 -11 63 -44 32 -17 -15 -24 -17 -30
-8 -4 7 -9 -36 -11 -97 -2 -77 -3 -56 -5 73 l-2 182 -992 -2 c-985 -3 -993 -3
-994 -23 0 -11 -2 -76 -4 -145 -4 -124 -4 -124 -10 -45 -3 44 -7 74 -8 67 -2
-16 -49 16 -55 38 -3 8 -5 -7 -6 -34 0 -27 -4 -47 -7 -43 -3 3 -9 203 -13 444
-7 415 -8 441 -29 497 -67 182 -211 317 -398 373 -55 16 -165 18 -1554 23
-822 3 -1461 7 -1420 8 61 3 70 5 50 13 -20 8 -22 12 -10 19 10 6 -16 10 -75
13 l-90 3 113 2 112 2 0 243 0 242 108 107 107 107 65 -56 c275 -238 568 -385
915 -460 164 -35 477 -44 652 -18 1199 173 1951 1383 1572 2530 -277 839
-1101 1391 -1977 1325 -608 -46 -1145 -359 -1483 -865 -174 -259 -295 -607
-319 -915 l-7 -95 -2 83 -1 82 -20 -20 c-11 -11 -27 -20 -36 -20 -18 0 -56 19
-66 33 -3 6 -5 -64 -3 -154 l3 -164 -8 145 c-16 302 -69 525 -184 774 -242
521 -722 920 -1280 1061 -195 49 -440 70 -638 54z m2099 -2121 c-3 -7 -5 -2
-5 12 0 14 2 19 5 13 2 -7 2 -19 0 -25z"/>
<path d="M4651 8634 c0 -11 3 -14 6 -6 3 7 2 16 -1 19 -3 4 -6 -2 -5 -13z"/>
<path d="M5227 6983 c-13 -12 -7 -22 12 -20 15 1 17 4 9 14 -12 15 -13 15 -21
6z"/>
<path d="M3890 6945 l-23 -25 24 0 c36 -1 112 -43 126 -71 7 -13 13 -18 13
-10 0 12 -93 120 -111 129 -3 1 -16 -9 -29 -23z"/>
</g>
</svg>
